# Blender v2.81 (sub 16) OBJ File: ''
# www.blender.org
mtllib crystal.mtl
o Sphere_Sphere.001
v 0.000000 -0.500000 -0.866025
v 0.750000 0.500000 -0.433013
v 0.750000 -0.500000 -0.433013
v 0.750000 0.500000 0.433013
v 0.750000 -0.500000 0.433013
v -0.000000 0.500000 0.866026
v -0.000000 -0.500000 0.866026
v 0.000000 -1.000000 0.000000
v -0.000000 1.000000 0.000000
v -0.750000 0.500000 0.433013
v -0.750000 -0.500000 0.433013
v -0.750000 0.500000 -0.433013
v -0.750000 -0.500000 -0.433013
v 0.000000 0.500000 -0.866026
vt 0.583333 0.000000
vt 0.666667 0.333333
vt 0.500000 0.333333
vt 0.666667 0.666667
vt 0.583333 1.000000
vt 0.500000 0.666667
vt 0.416667 0.000000
vt 0.333333 0.333333
vt 0.416667 1.000000
vt 0.333333 0.666667
vt 0.250000 0.000000
vt 0.166667 0.333333
vt 0.250000 1.000000
vt 0.166667 0.666667
vt 0.083333 0.000000
vt 0.000000 0.333333
vt 0.083333 1.000000
vt 0.000000 0.666667
vt 0.916667 0.000000
vt 1.000000 0.333333
vt 0.833333 0.333333
vt 0.833333 0.666667
vt 1.000000 0.666667
vt 0.916667 1.000000
vt 0.750000 0.000000
vt 0.750000 1.000000
vn 0.2774 -0.8321 -0.4804
vn 0.5000 -0.0000 -0.8660
vn 0.2774 0.8321 -0.4804
vn 0.5547 -0.8321 0.0000
vn 1.0000 -0.0000 0.0000
vn 0.5547 0.8321 0.0000
vn 0.2774 -0.8321 0.4804
vn 0.5000 -0.0000 0.8660
vn 0.2773 0.8321 0.4804
vn -0.2774 -0.8321 0.4804
vn -0.5000 0.0000 0.8660
vn -0.2774 0.8321 0.4804
vn -0.5547 -0.8321 -0.0000
vn -1.0000 -0.0000 -0.0000
vn -0.5547 0.8321 -0.0000
vn -0.2773 -0.8321 -0.4804
vn -0.5000 -0.0000 -0.8660
vn -0.2773 0.8321 -0.4804
usemtl None
s off
f 8/1/1 1/2/1 3/3/1
f 14/4/2 3/3/2 1/2/2
f 14/4/3 9/5/3 2/6/3
f 8/7/4 3/3/4 5/8/4
f 2/6/5 5/8/5 3/3/5
f 2/6/6 9/9/6 4/10/6
f 8/11/7 5/8/7 7/12/7
f 4/10/8 7/12/8 5/8/8
f 4/10/9 9/13/9 6/14/9
f 8/15/10 7/12/10 11/16/10
f 6/14/11 11/16/11 7/12/11
f 6/14/12 9/17/12 10/18/12
f 8/19/13 11/20/13 13/21/13
f 11/20/14 12/22/14 13/21/14
f 10/23/15 9/24/15 12/22/15
f 8/25/16 13/21/16 1/2/16
f 12/22/17 1/2/17 13/21/17
f 12/22/18 9/26/18 14/4/18
f 14/4/2 2/6/2 3/3/2
f 2/6/5 4/10/5 5/8/5
f 4/10/8 6/14/8 7/12/8
f 6/14/11 10/18/11 11/16/11
f 11/20/14 10/23/14 12/22/14
f 12/22/17 14/4/17 1/2/17
